<svg width="639" height="604" viewBox="0 0 639 604" fill="none" xmlns="http://www.w3.org/2000/svg">
<g clip-path="url(#clip0_1_2)">
<circle cx="319.5" cy="301.5" r="289.5" stroke="#E9C349" stroke-width="16"/>
<path d="M175 122C182 122.333 191.167 122.667 202.5 123C213.833 123.333 225 123.5 236 123.5C251.667 123.5 266.667 123.333 281 123C295.333 122.667 305.5 122.5 311.5 122.5C338.5 122.5 360.833 126.333 378.5 134C396.5 141.667 409.833 152.167 418.5 165.5C427.5 178.5 432 193.167 432 209.5C432 219.5 430 230.167 426 241.5C422 252.833 415 263.5 405 273.5C395.333 283.5 382 291.833 365 298.5C348 304.833 326.5 308 300.5 308H252.5V298H295.5C319.167 298 337.167 294.333 349.5 287C362.167 279.333 370.667 269.333 375 257C379.667 244.333 382 230.333 382 215C382 188.667 375.667 168.333 363 154C350.667 139.333 329.333 132 299 132C283.667 132 273.667 134.833 269 140.5C264.333 146.167 262 157.667 262 175V423C262 435 263 444 265 450C267 456 270.833 460 276.5 462C282.5 464 291.167 465.333 302.5 466V476C294.833 475.333 285.167 475 273.5 475C262.167 474.667 250.667 474.5 239 474.5C226 474.5 213.833 474.667 202.5 475C191.167 475 182 475.333 175 476V466C186.333 465.333 194.833 464 200.5 462C206.5 460 210.5 456 212.5 450C214.5 444 215.5 435 215.5 423V175C215.5 162.667 214.5 153.667 212.5 148C210.5 142 206.5 138 200.5 136C194.833 133.667 186.333 132.333 175 132V122ZM254.5 299.5C272.5 300.167 286.667 301 297 302C307.333 302.667 315.667 303.333 322 304C328.667 304.667 335 305.5 341 306.5C363.333 310.167 379.333 317 389 327C399 336.667 406.333 351.833 411 372.5L423.5 423.5C426.833 438.167 430.167 448.833 433.5 455.5C437.167 461.833 442.667 464.833 450 464.5C455.667 464.167 460.333 462.333 464 459C468 455.667 472.167 451.167 476.5 445.5L484 451C477 461.333 469.667 469.333 462 475C454.667 480.333 444.167 483 430.5 483C418.167 483 407.333 479.333 398 472C388.667 464.667 381.667 450.333 377 429L366 379C363 364.667 359.5 352.333 355.5 342C351.833 331.333 346.5 323 339.5 317C332.833 311 322.833 308 309.5 308H255.5L254.5 299.5Z" fill="#E9C349"/>
</g>
<defs>
<clipPath id="clip0_1_2">
<rect width="639" height="604" fill="white"/>
</clipPath>
</defs>
</svg>
